<svg version="1.1" xmlns="http://www.w3.org/2000/svg" xmlns:xlink="http://www.w3.org/1999/xlink" class="thumbnail-icon" viewBox="-0.000003814697265625 27.500011444091797 200 144.99996948242188"><g data-paper-data="{&quot;fillRule&quot;:&quot;evenodd&quot;,&quot;isIcon&quot;:true,&quot;iconStyle&quot;:&quot;standalone&quot;,&quot;selectedEffects&quot;:{&quot;container&quot;:&quot;&quot;,&quot;transformation&quot;:&quot;&quot;,&quot;pattern&quot;:&quot;&quot;},&quot;bounds&quot;:{&quot;x&quot;:197.82279112005162,&quot;y&quot;:146.57647169679757,&quot;width&quot;:154.35441775989673,&quot;height&quot;:111.9073028768725},&quot;iconType&quot;:&quot;icon&quot;,&quot;rawIconId&quot;:&quot;972715&quot;,&quot;isDetailed&quot;:false}"><path d="M192.16667,61.66667c-5,-11.66667 -12.33333,-22.16667 -21.5,-31.33333l-2.83333,-2.83333l-5.66667,5.66667l2.83333,2.83333c8.5,8.33333 15,18 19.66667,28.66667c4.83333,11.16667 7.16667,23 7.16667,35.16667c0,12.16667 -2.5,24 -7.16667,35.16667c-4.66667,10.83333 -11.33333,20.5 -19.66667,28.66667l-2.83333,2.83333l5.66667,5.66667l2.83333,-2.83333c9.16667,-9 16.33333,-19.5 21.5,-31.33333c5.16667,-12.16667 7.83333,-25 7.83333,-38.33333c0,-13 -2.66667,-25.83333 -7.83333,-38zM15.16666,135.16668c-4.83333,-11.16667 -7.16667,-23 -7.16667,-35.16667c0,-12.16667 2.5,-24 7.16667,-35.16667c4.66667,-10.83333 11.33333,-20.33333 19.66667,-28.66667l2.83333,-2.83333l-5.66667,-5.66667l-2.83333,2.83333c-9,9 -16.33333,19.5 -21.33333,31.16667c-5.16667,12.16667 -7.83333,25 -7.83333,38.33333c0,13.33333 2.66667,26.16667 7.83333,38.33333c5,11.66667 12.33333,22.16667 21.5,31.33333l2.83333,2.83333l5.66667,-5.66667l-2.83333,-2.83333c-8.5,-8.5 -15.16667,-18.16667 -19.83333,-28.83333zM123,77.33333c-3,-3 -6.5,-5.33333 -10.33333,-6.83333c-2.83333,-1.16667 -5.66667,-1.83333 -8.66667,-2.16667v-39h-8v38.83333c-3,0.33333 -5.83333,1.16667 -8.66667,2.16667c-3.83333,1.66667 -7.33333,4 -10.33333,6.83333c-3,3 -5.33333,6.33333 -7,10.16667c-1.66667,4 -2.5,8.16667 -2.5,12.5c0,4.33333 0.83333,8.5 2.5,12.5c1.66667,3.83333 4,7.33333 7,10.16667c3,3 6.5,5.33333 10.33333,6.83333c2.83333,1.16667 5.66667,1.83333 8.66667,2.33333v38.83333h8v-38.66667c3,-0.33333 5.83333,-1.16667 8.66667,-2.33333c3.83333,-1.66667 7.33333,-4 10.33333,-6.83333c3,-3 5.33333,-6.33333 7,-10.16667c1.66667,-4 2.5,-8.16667 2.5,-12.5c0,-4.33333 -0.83333,-8.5 -2.5,-12.5c-1.66667,-3.83333 -4,-7.33333 -7,-10.16667zM58.66666,59.5l3,-2.83333l-5.66667,-5.66667l-2.83333,2.83333c-6.16667,6 -10.83333,13 -14.16667,20.66667c-3.5,8 -5.16667,16.66667 -5.16667,25.5c0,8.83333 1.83333,17.33333 5.16667,25.5c3.33333,7.83333 8.16667,14.83333 14.16667,20.66667l2.83333,2.83333l5.66667,-5.66667l-2.83333,-2.83333c-5.33333,-5.33333 -9.5,-11.33333 -12.5,-18.16667c-3.16667,-7.16667 -4.66667,-14.66667 -4.66667,-22.33333c0,-7.66667 1.5,-15.16667 4.5,-22.33333c3,-6.66667 7.16667,-12.83333 12.5,-18.16667zM161.16667,74.5c-3.33333,-7.83333 -8.16667,-14.66667 -14.16667,-20.66667l-2.83333,-2.83333l-5.83333,5.66667l2.83333,2.83333c5.33333,5.33333 9.5,11.33333 12.5,18.16667c3,7 4.5,14.5 4.5,22.33333c0,7.83333 -1.5,15.16667 -4.5,22.33333c-3,6.83333 -7.16667,13 -12.5,18.16667l-2.83333,2.83333l5.66667,5.66667l2.83333,-2.83333c6.16667,-6 10.83333,-13 14.16667,-20.66667c3.5,-8 5.16667,-16.66667 5.16667,-25.5c0.16667,-8.83333 -1.66667,-17.33333 -5,-25.5zM122.66667,109.33334c-1.16667,2.83333 -3,5.5 -5.33333,7.66667c-2.33333,2.16667 -4.83333,4 -7.83333,5.16667c-6,2.5 -13.16667,2.5 -19.16667,0c-3,-1.16667 -5.5,-3 -7.83333,-5.16667c-2.33333,-2.16667 -4,-4.83333 -5.33333,-7.66667c-1.33333,-3 -2,-6.16667 -2,-9.33333c0,-3.33333 0.66667,-6.33333 2,-9.33333c1.16667,-2.83333 3,-5.5 5.33333,-7.66667c2.33333,-2.16667 4.83333,-4 7.83333,-5.16667c3,-1.33333 6.33333,-1.83333 9.66667,-1.83333c3.33333,0 6.5,0.66667 9.66667,1.83333c3,1.16667 5.5,3 7.83333,5.16667c2.33333,2.16667 4,4.83333 5.33333,7.66667c1.33333,3 2,6.16667 2,9.33333c-0.16667,3.33333 -0.83333,6.33333 -2.16667,9.33333z" fill-rule="evenodd"></path></g></svg>